<?xml version="1.0" encoding="iso-8859-1"?>
<!-- Uploaded to: SVG Repo, www.svgrepo.com, Generator: SVG Repo Mixer Tools -->
<svg fill="#000000" height="800px" width="800px" version="1.1" id="Layer_1" xmlns="http://www.w3.org/2000/svg" xmlns:xlink="http://www.w3.org/1999/xlink" 
	 viewBox="0 0 510.905 510.905" xml:space="preserve">
<g>
	<g>
		<g>
			<path d="M199.412,116.494l-45.12-97.749L45.279,98.041c-1.984,1.429-3.413,3.52-4.032,5.867L0.692,255.993h109.035
				L199.412,116.494z"/>
			<polygon points="216.436,129.444 128.628,266.041 236.169,402.916 392.457,334.542 382.708,168.548 			"/>
			<path d="M389.556,148.238l65.749-65.749L323.807,1.572c-1.899-1.173-4.032-1.664-6.357-1.557L173.897,10.276l45.163,97.856
				L389.556,148.238z"/>
			<path d="M110.367,277.326H1.375l50.795,142.251c0.811,2.283,2.389,4.224,4.437,5.504L188.66,506.34l32.171-88.405
				L110.367,277.326z"/>
			<path d="M241.332,423.929l-31.637,86.976l152.576-20.352c1.771-0.235,3.435-0.896,4.864-1.941l111.936-81.408l-76.736-53.717
				L241.332,423.929z"/>
			<path d="M509.663,220.622L469.087,98.873l-65.28,65.28l10.091,171.392l75.819,53.077l20.416-163.307
				C510.324,223.737,510.175,222.137,509.663,220.622z"/>
		</g>
	</g>
</g>
</svg>